<?xml version="1.0" standalone="no"?>
<!DOCTYPE svg PUBLIC "-//W3C//DTD SVG 20010904//EN"
 "http://www.w3.org/TR/2001/REC-SVG-20010904/DTD/svg10.dtd">
<svg version="1.0" xmlns="http://www.w3.org/2000/svg"
 width="748.000000pt" height="625.000000pt" viewBox="0 0 748.000000 625.000000"
 preserveAspectRatio="xMidYMid meet">

<g transform="translate(0.000000,625.000000) scale(0.100000,-0.100000)"
fill="#000000" stroke="none">
<path d="M7 6223 c3 -16 70 -282 148 -593 l141 -565 831 -3 831 -2 6 -93 c3
-50 31 -1062 62 -2247 31 -1185 57 -2156 57 -2156 8 -7 1190 -564 1192 -562 1
2 -31 1121 -71 2488 -40 1367 -73 2511 -74 2543 l0 57 350 0 c193 0 350 -3
350 -7 0 -5 -27 -55 -60 -113 -118 -205 -133 -276 -134 -610 -1 -258 6 -328
50 -497 91 -353 281 -583 552 -672 108 -35 213 -44 363 -31 193 16 320 43 534
115 230 77 367 108 495 109 113 1 162 -17 238 -88 77 -72 105 -144 110 -286 4
-99 1 -124 -18 -179 -72 -215 -313 -429 -731 -650 -363 -191 -913 -391 -1278
-463 l-111 -21 0 -834 0 -833 93 49 c50 27 211 102 357 166 752 331 1097 500
1458 716 1005 602 1515 1274 1513 1998 0 202 -24 342 -92 545 -165 496 -526
855 -971 968 -73 18 -101 20 -228 15 -80 -4 -192 -15 -250 -26 -58 -11 -166
-31 -240 -45 -74 -13 -183 -30 -242 -36 -254 -27 -382 43 -407 223 -26 186 54
342 231 450 l63 38 340 -5 c187 -3 626 -9 976 -12 l636 -6 20 34 c64 108 178
437 291 839 38 134 73 259 77 277 l7 32 -3736 0 -3736 0 7 -27z"/>
</g>
</svg>
